<svg width="22" height="22" viewBox="0 0 22 22" fill="none" xmlns="http://www.w3.org/2000/svg">
<g id="akar-icons:instagram-fill" clip-path="url(#clip0_12_130)">
<path id="Vector" fill-rule="evenodd" clip-rule="evenodd" d="M6.84288 0.977187C7.91813 0.927687 8.26096 0.916687 11 0.916687C13.739 0.916687 14.0818 0.928604 15.1561 0.977187C16.2305 1.02577 16.9638 1.19719 17.6055 1.4456C18.2774 1.69952 18.887 2.09644 19.3911 2.60977C19.9045 3.11302 20.3005 3.72169 20.5535 4.39452C20.8028 5.03619 20.9733 5.76952 21.0228 6.84202C21.0723 7.9191 21.0833 8.26194 21.0833 11C21.0833 13.739 21.0714 14.0819 21.0228 15.1571C20.9742 16.2296 20.8028 16.9629 20.5535 17.6046C20.3005 18.2775 19.9038 18.8872 19.3911 19.3912C18.887 19.9045 18.2774 20.3005 17.6055 20.5535C16.9638 20.8029 16.2305 20.9734 15.158 21.0229C14.0818 21.0724 13.739 21.0834 11 21.0834C8.26096 21.0834 7.91813 21.0714 6.84288 21.0229C5.77038 20.9743 5.03704 20.8029 4.39538 20.5535C3.72247 20.3005 3.11279 19.9038 2.60879 19.3912C2.09581 18.8876 1.69883 18.2782 1.44554 17.6055C1.19713 16.9639 1.02663 16.2305 0.977126 15.158C0.927626 14.0809 0.916626 13.7381 0.916626 11C0.916626 8.26102 0.928543 7.91819 0.977126 6.84385C1.02571 5.76952 1.19713 5.03619 1.44554 4.39452C1.69921 3.72176 2.09648 3.11239 2.60971 2.60885C3.113 2.09598 3.72206 1.69901 4.39446 1.4456C5.03613 1.19719 5.76946 1.02669 6.84196 0.977187H6.84288ZM15.0745 2.79219C14.0112 2.7436 13.6922 2.73352 11 2.73352C8.30771 2.73352 7.98871 2.7436 6.92538 2.79219C5.94179 2.8371 5.40829 3.00119 5.05263 3.1396C4.58238 3.32294 4.24596 3.54019 3.89304 3.8931C3.5585 4.21857 3.30104 4.61478 3.13954 5.05269C3.00113 5.40835 2.83704 5.94185 2.79213 6.92544C2.74354 7.98877 2.73346 8.30777 2.73346 11C2.73346 13.6923 2.74354 14.0113 2.79213 15.0746C2.83704 16.0582 3.00113 16.5917 3.13954 16.9474C3.30088 17.3846 3.55846 17.7815 3.89304 18.1069C4.21846 18.4415 4.61538 18.6991 5.05263 18.8604C5.40829 18.9989 5.94179 19.1629 6.92538 19.2079C7.98871 19.2564 8.30679 19.2665 11 19.2665C13.6931 19.2665 14.0112 19.2564 15.0745 19.2079C16.0581 19.1629 16.5916 18.9989 16.9473 18.8604C17.4175 18.6771 17.754 18.4599 18.1069 18.1069C18.4415 17.7815 18.699 17.3846 18.8604 16.9474C18.9988 16.5917 19.1629 16.0582 19.2078 15.0746C19.2564 14.0113 19.2665 13.6923 19.2665 11C19.2665 8.30777 19.2564 7.98877 19.2078 6.92544C19.1629 5.94185 18.9988 5.40835 18.8604 5.05269C18.677 4.58244 18.4598 4.24602 18.1069 3.8931C17.7814 3.55859 17.3852 3.30113 16.9473 3.1396C16.5916 3.00119 16.0581 2.8371 15.0745 2.79219ZM9.71204 14.1084C10.4313 14.4078 11.2322 14.4483 11.978 14.2228C12.7237 13.9973 13.3681 13.5199 13.8009 12.8721C14.2338 12.2243 14.4283 11.4463 14.3513 10.671C14.2743 9.89575 13.9305 9.17124 13.3787 8.62127C13.0269 8.26971 12.6016 8.00051 12.1333 7.83307C11.665 7.66563 11.1654 7.6041 10.6704 7.65292C10.1755 7.70174 9.69752 7.85968 9.27095 8.11539C8.84438 8.3711 8.47981 8.7182 8.20349 9.13172C7.92717 9.54523 7.74597 10.0149 7.67293 10.5068C7.5999 10.9988 7.63685 11.5008 7.78112 11.9767C7.92539 12.4527 8.1734 12.8907 8.50729 13.2593C8.84117 13.628 9.25263 13.9179 9.71204 14.1084ZM7.33513 7.33519C7.8164 6.85391 8.38775 6.47215 9.01657 6.21168C9.64538 5.95122 10.3193 5.81716 11 5.81716C11.6806 5.81716 12.3545 5.95122 12.9834 6.21168C13.6122 6.47215 14.1835 6.85391 14.6648 7.33519C15.1461 7.81646 15.5278 8.38781 15.7883 9.01663C16.0488 9.64544 16.1828 10.3194 16.1828 11C16.1828 11.6806 16.0488 12.3546 15.7883 12.9834C15.5278 13.6122 15.1461 14.1836 14.6648 14.6649C13.6928 15.6368 12.3745 16.1829 11 16.1829C9.62538 16.1829 8.3071 15.6368 7.33513 14.6649C6.36315 13.6929 5.8171 12.3746 5.8171 11C5.8171 9.62544 6.36315 8.30716 7.33513 7.33519ZM17.3323 6.58902C17.4516 6.47652 17.547 6.34123 17.6131 6.19116C17.6791 6.0411 17.7144 5.87931 17.7168 5.71537C17.7191 5.55144 17.6886 5.38869 17.627 5.23676C17.5653 5.08484 17.4739 4.94682 17.3579 4.83089C17.242 4.71496 17.104 4.62346 16.952 4.56183C16.8001 4.50019 16.6374 4.46966 16.4734 4.47205C16.3095 4.47444 16.1477 4.5097 15.9976 4.57574C15.8476 4.64178 15.7123 4.73726 15.5998 4.85652C15.381 5.08846 15.2612 5.39655 15.2659 5.71537C15.2705 6.0342 15.3992 6.33866 15.6247 6.56413C15.8502 6.78959 16.1546 6.91831 16.4734 6.92296C16.7923 6.92761 17.1003 6.80782 17.3323 6.58902Z" fill="black"/>
</g>
<defs>
<clipPath id="clip0_12_130">
<rect width="22" height="22" fill="white"/>
</clipPath>
</defs>
</svg>
