<svg width="17" height="18" viewBox="0 0 17 18" fill="none" xmlns="http://www.w3.org/2000/svg">
<g id="cil:location-pin">
<path id="Vector" d="M8.43109 4.73645C8.01081 4.73645 7.59996 4.86108 7.25051 5.09458C6.90105 5.32808 6.62868 5.65995 6.46785 6.04825C6.30701 6.43654 6.26493 6.86381 6.34692 7.27602C6.42892 7.68823 6.6313 8.06687 6.92849 8.36405C7.22568 8.66124 7.60432 8.86363 8.01653 8.94562C8.42873 9.02761 8.856 8.98553 9.24429 8.82469C9.63259 8.66386 9.96447 8.39149 10.198 8.04204C10.4315 7.69258 10.5561 7.28174 10.5561 6.86145C10.5555 6.29806 10.3314 5.75793 9.93299 5.35956C9.53461 4.96118 8.99448 4.73709 8.43109 4.73645ZM8.43109 7.92395C8.22095 7.92395 8.01553 7.86164 7.8408 7.74489C7.66607 7.62814 7.52989 7.4622 7.44947 7.26805C7.36905 7.0739 7.34801 6.86027 7.38901 6.65417C7.43 6.44806 7.5312 6.25874 7.67979 6.11015C7.82838 5.96156 8.0177 5.86036 8.22381 5.81937C8.42991 5.77837 8.64355 5.79941 8.83769 5.87983C9.03184 5.96025 9.19778 6.09643 9.31453 6.27116C9.43128 6.44588 9.49359 6.65131 9.49359 6.86145C9.49327 7.14314 9.38122 7.41321 9.18203 7.61239C8.98285 7.81158 8.71278 7.92362 8.43109 7.92395Z" fill="black"/>
<path id="Vector_2" d="M12.5145 2.77486C11.5049 1.7655 10.1571 1.1659 8.73144 1.09178C7.30573 1.01766 5.9031 1.47428 4.79426 2.37351C3.68543 3.27274 2.94898 4.55083 2.72707 5.96111C2.50515 7.37139 2.8135 8.81388 3.5926 10.0102L7.60709 16.1731C7.69643 16.3103 7.81858 16.4229 7.96247 16.5009C8.10636 16.5789 8.26744 16.6198 8.43111 16.6198C8.59478 16.6198 8.75586 16.5789 8.89975 16.5009C9.04364 16.4229 9.16579 16.3103 9.25513 16.1731L13.2698 10.0102C13.9927 8.90044 14.3121 7.57592 14.1746 6.25864C14.0371 4.94136 13.451 3.71138 12.5145 2.77486ZM12.3795 9.43023L8.43113 15.4915L4.48271 9.43023C3.27412 7.57487 3.53333 5.09194 5.09906 3.52614C5.53663 3.08856 6.0561 2.74146 6.62782 2.50464C7.19954 2.26782 7.8123 2.14593 8.43113 2.14593C9.04995 2.14593 9.66272 2.26782 10.2344 2.50464C10.8062 2.74146 11.3256 3.08856 11.7632 3.52614C13.3289 5.09194 13.5881 7.57487 12.3795 9.43023Z" fill="black"/>
</g>
</svg>
